<?xml version="1.0" encoding="UTF-8"?>
<!DOCTYPE svg PUBLIC "-//W3C//DTD SVG 1.1//EN" "http://www.w3.org/Graphics/SVG/1.1/DTD/svg11.dtd">
<!-- Creator: CorelDRAW X7 -->
<svg xmlns="http://www.w3.org/2000/svg" xml:space="preserve" width="4in" height="2in" version="1.1" style="shape-rendering:geometricPrecision; text-rendering:geometricPrecision; image-rendering:optimizeQuality; fill-rule:evenodd; clip-rule:evenodd"
viewBox="0 0 4000 2000"
 xmlns:xlink="http://www.w3.org/1999/xlink">
 <defs>
  <style type="text/css">
   <![CDATA[
    .fil2 {fill:#F8A060;fill-rule:nonzero}
    .fil1 {fill:#A8CF45;fill-rule:nonzero}
    .fil0 {fill:#005484;fill-rule:nonzero}
   ]]>
  </style>
 </defs>
 <g id="Layer_x0020_1">
  <metadata id="CorelCorpID_0Corel-Layer"/>
  <path class="fil0" d="M3687 1094l0 -159c-6,-8 -15,-16 -26,-22 -11,-6 -24,-9 -40,-9 -23,0 -42,8 -57,25 -15,17 -22,44 -22,83 0,30 7,55 21,73 14,19 33,28 59,28 14,0 27,-2 40,-7 13,-4 21,-8 25,-12zm144 50l-82 68c-12,-4 -23,-10 -32,-19 -10,-9 -16,-19 -19,-31l-64 37c-2,1 -6,2 -12,4 -6,1 -11,2 -16,2 -49,0 -89,-17 -121,-50 -32,-34 -48,-81 -48,-141 0,-57 16,-103 50,-140 33,-37 75,-56 127,-56 20,0 39,4 57,12 18,8 30,15 36,22l59 -22 21 6 0 232c0,21 3,37 10,49 7,12 18,21 34,27z"/>
  <path class="fil0" d="M584 790c-9,-67 -82,-129 -212,-160 -27,18 -52,39 -75,62 117,12 254,56 274,148 8,35 10,207 453,26 -8,-25 -18,-48 -29,-71 -161,72 -393,136 -411,-5z"/>
  <path class="fil0" d="M584 915c-11,-85 -125,-162 -325,-178 -18,24 -33,49 -45,75 123,-2 331,36 357,152 8,36 10,212 472,18 0,-27 -4,-54 -10,-80 -158,77 -429,165 -449,13z"/>
  <path class="fil0" d="M584 1041c-12,-93 -149,-177 -389,-180 -8,26 -15,53 -18,80 112,-12 365,21 394,150 8,35 10,207 456,25 8,-30 14,-61 16,-93 -157,79 -439,174 -459,18z"/>
  <path class="fil1" d="M584 1168c-13,-96 -157,-182 -410,-180 0,2 0,5 0,8 0,24 2,48 5,71 114,-11 364,23 392,150 7,33 10,185 372,57 27,-32 49,-69 66,-108 -160,74 -406,146 -425,2z"/>
  <path class="fil1" d="M584 1292c-13,-94 -151,-178 -395,-180 8,27 18,53 30,78 124,-2 327,37 352,152 3,16 6,62 53,89 91,-4 175,-35 243,-85 -134,42 -269,52 -283,-54z"/>
  <path class="fil1" d="M249 1241c21,30 45,58 73,82 92,13 189,45 231,104 11,2 22,3 33,3 -1,-3 -2,-7 -2,-11 -12,-87 -128,-164 -335,-178z"/>
  <path class="fil1" d="M571 716c7,33 10,193 404,45 -14,-22 -30,-43 -48,-62 -151,57 -327,89 -343,-33 -5,-35 -26,-68 -64,-96 -30,6 -58,15 -86,27 69,24 124,62 137,119z"/>
  <path class="fil1" d="M890 664c-25,-21 -52,-40 -81,-55 -103,24 -196,22 -220,-48 -9,1 -18,1 -27,2 4,8 7,17 9,26 7,31 9,170 319,75z"/>
  <path class="fil2" d="M927 699c18,19 34,40 48,62l-48 -62z"/>
  <path class="fil2" d="M809 609c29,15 56,34 81,55l-81 -55z"/>
  <polygon class="fil0" points="1586,866 1414,1201 1332,1201 1170,866 1264,822 1377,1071 1498,822 "/>
  <path class="fil0" d="M1876 985c-5,-27 -16,-48 -32,-62 -15,-14 -35,-21 -58,-21 -27,0 -47,7 -61,23 -14,15 -22,35 -25,60l176 0zm95 49l-270 0c6,30 18,51 35,64 18,13 39,20 65,20 20,0 42,-3 67,-9 24,-6 44,-14 58,-23l0 92c-13,9 -34,17 -60,22 -27,6 -49,9 -65,9 -64,0 -114,-18 -151,-53 -36,-35 -54,-82 -54,-141 0,-60 19,-108 56,-144 37,-37 83,-55 138,-55 55,0 99,19 132,58 33,39 49,93 49,160z"/>
  <path class="fil0" d="M2257 1089l0 -161c-6,-7 -15,-13 -28,-18 -13,-6 -28,-8 -43,-8 -28,0 -49,8 -63,25 -14,16 -21,43 -21,79 0,37 8,65 23,83 14,19 34,28 59,28 16,0 31,-3 43,-8 12,-6 22,-12 30,-20zm102 112l-80 0 -21 -33 -55 30c-4,2 -11,4 -20,5 -8,1 -16,2 -22,2 -53,0 -94,-18 -122,-54 -27,-36 -41,-81 -42,-135 0,-59 17,-106 50,-141 34,-35 78,-52 133,-52 16,0 30,1 42,4 12,2 23,7 35,13l0 -160 102 0 0 521z"/>
  <path class="fil0" d="M2657 1094l0 -159c-6,-8 -15,-16 -26,-22 -11,-6 -24,-9 -40,-9 -23,0 -42,8 -57,25 -15,17 -22,44 -22,83 0,30 7,55 21,73 14,19 33,28 58,28 15,0 28,-2 41,-7 13,-4 21,-8 25,-12zm144 50l-82 68c-12,-4 -23,-10 -32,-19 -10,-9 -16,-19 -19,-31l-64 37c-2,1 -6,2 -12,4 -6,1 -12,2 -16,2 -49,0 -89,-17 -121,-50 -32,-34 -48,-81 -48,-141 0,-57 16,-103 49,-140 34,-37 76,-56 128,-56 20,0 39,4 57,12 18,8 30,15 36,22l59 -22 21 6 0 232c0,21 3,37 10,49 7,12 18,21 34,27z"/>
  <path class="fil0" d="M3188 1201l-104 0 0 -228c0,-13 -5,-25 -14,-36 -10,-10 -24,-15 -44,-15 -19,0 -34,4 -47,12 -12,7 -22,15 -30,21l0 246 -104 0 0 -365 104 -7 0 36 43 -25c13,-7 26,-13 40,-16 13,-3 27,-5 40,-5 36,0 64,11 85,34 21,22 31,51 31,88l0 260z"/>
  <path class="fil0" d="M3424 1138l-76 71c-31,-13 -54,-32 -70,-57 -16,-25 -23,-55 -23,-89l0 -160 -35 0 0 -67 35 0 0 -119 104 -8 0 127 53 0 0 67 -53 0 0 131c0,26 5,48 17,65 12,17 28,30 48,39z"/>
 </g>
</svg>
